<?xml version="1.0" encoding="iso-8859-1"?>
<!-- Generator: Adobe Illustrator 19.0.0, SVG Export Plug-In . SVG Version: 6.00 Build 0)  -->
<svg version="1.1" id="Capa_1" xmlns="http://www.w3.org/2000/svg" xmlns:xlink="http://www.w3.org/1999/xlink" x="0px" y="0px"
	 viewBox="0 0 484.457 484.457" style="enable-background:new 0 0 484.457 484.457;" xml:space="preserve">
<path d="M346.526,318.242l-21.213-21.213l100.586-100.586c18.415-18.415,28.558-42.899,28.558-68.943
	c0-26.043-10.143-50.527-28.558-68.942S383,30,356.957,30c-26.044,0-50.528,10.143-68.943,28.558L187.427,159.144l-21.213-21.213
	L266.801,37.345C290.882,13.263,322.9,0,356.957,0c34.056,0,66.074,13.263,90.155,37.345c24.082,24.081,37.345,56.1,37.345,90.155
	c0,34.057-13.263,66.075-37.345,90.156L346.526,318.242z M127.5,484.457c-34.057,0-66.075-13.263-90.156-37.345
	C13.263,423.031,0,391.013,0,356.957c0-34.057,13.263-66.075,37.344-90.156L137.93,166.215l21.213,21.213L58.557,288.014
	C40.142,306.429,30,330.913,30,356.957c0,26.043,10.142,50.527,28.557,68.942c18.416,18.415,42.9,28.558,68.943,28.558
	s50.527-10.143,68.942-28.558l100.586-100.586l21.213,21.213L217.656,447.112C193.575,471.194,161.557,484.457,127.5,484.457z
	 M321.688,141.552l21.213,21.213L162.768,342.898l-21.213-21.213L321.688,141.552z"/>
<g>
</g>
<g>
</g>
<g>
</g>
<g>
</g>
<g>
</g>
<g>
</g>
<g>
</g>
<g>
</g>
<g>
</g>
<g>
</g>
<g>
</g>
<g>
</g>
<g>
</g>
<g>
</g>
<g>
</g>
</svg>
