<?xml version="1.0" encoding="iso-8859-1"?>
<!-- Generator: Adobe Illustrator 18.0.0, SVG Export Plug-In . SVG Version: 6.00 Build 0)  -->
<!DOCTYPE svg PUBLIC "-//W3C//DTD SVG 1.1//EN" "http://www.w3.org/Graphics/SVG/1.1/DTD/svg11.dtd">
<svg version="1.1" id="Capa_1" xmlns="http://www.w3.org/2000/svg" xmlns:xlink="http://www.w3.org/1999/xlink" x="0px" y="0px"
	 viewBox="0 0 270.415 270.415" style="enable-background:new 0 0 270.415 270.415;" xml:space="preserve">
<g>
	<path d="M15,270.414c3.839,0,7.678-1.464,10.606-4.393l39.948-39.949c12.166,8.078,26.432,12.419,41.367,12.42
		c0.002,0,0.001,0,0.002,0c20.025,0,38.852-7.797,53.014-21.951c0.006-0.006,0.013-0.011,0.018-0.017l28.266-28.266
		c0.007-0.007,0.015-0.013,0.021-0.019l28.281-28.284c0.007-0.007,0.012-0.015,0.02-0.02c14.154-14.163,21.948-32.988,21.948-53.012
		c0-14.936-4.342-29.202-12.419-41.367l39.948-39.949c5.858-5.857,5.858-15.354,0-21.213c-5.857-5.857-15.356-5.857-21.213,0
		L204.86,44.343c-12.164-8.078-26.432-12.42-41.368-12.42c-20.026,0-38.856,7.797-53.019,21.953
		c-0.006,0.006-0.012,0.01-0.017,0.016L82.184,82.166c-0.004,0.004-0.008,0.006-0.011,0.01l-28.276,28.277
		c-0.002,0.001-0.004,0.002-0.005,0.004c-25.611,25.611-28.792,65.288-9.542,94.395L4.394,244.807
		c-5.858,5.858-5.858,15.355,0,21.214C7.323,268.95,11.161,270.414,15,270.414z M75.105,131.67c0.001-0.001,0.003-0.003,0.005-0.005
		l28.266-28.268c0.004-0.004,0.008-0.006,0.011-0.01l28.276-28.277c0.004-0.004,0.008-0.006,0.011-0.01
		c8.499-8.498,19.799-13.178,31.818-13.178c6.829,0,13.425,1.516,19.408,4.379l-22.943,22.943c-5.858,5.858-5.858,15.355,0,21.214
		c2.929,2.929,6.768,4.394,10.607,4.394c3.839,0,7.678-1.465,10.606-4.394l22.942-22.942c2.865,5.982,4.38,12.577,4.38,19.406
		c0,12.02-4.682,23.32-13.182,31.819l-0.001,0.001l0,0l-28.26,28.263c-0.007,0.007-0.014,0.013-0.021,0.019l-28.278,28.277
		c-0.003,0.004-0.006,0.006-0.01,0.01c-8.498,8.499-19.798,13.18-31.817,13.18c-6.829-0.001-13.425-1.516-19.407-4.38l22.942-22.942
		c5.858-5.858,5.858-15.355,0-21.214c-5.857-5.857-15.355-5.857-21.213,0L66.321,182.88
		C58.355,166.156,61.277,145.498,75.105,131.67z"/>
</g>
<g>
</g>
<g>
</g>
<g>
</g>
<g>
</g>
<g>
</g>
<g>
</g>
<g>
</g>
<g>
</g>
<g>
</g>
<g>
</g>
<g>
</g>
<g>
</g>
<g>
</g>
<g>
</g>
<g>
</g>
</svg>
